<?xml version="1.0" encoding="UTF-8"?>
<svg id="Calque_1" xmlns="http://www.w3.org/2000/svg" version="1.1" viewBox="0 0 430.5 73.7">
  <!-- Generator: Adobe Illustrator 29.6.1, SVG Export Plug-In . SVG Version: 2.1.1 Build 9)  -->
  <defs>
    <style>
      .st0 {
        fill: #1d1d1b;
      }

      .st1 {
        fill: #1c63ed;
      }
    </style>
  </defs>
  <g>
    <path class="st0" d="M19.1,31h-6.5v-13.3h0c3.6,0,6.5-2.9,6.5-6.5v-7.2h16.2v13.7h10.6v13.3h-10.6v24c0,3.1,1.3,4.4,4.9,4.4h5.8v13.6h-8.3c-11,0-18.7-4.6-18.7-18.2v-23.8Z"/>
    <path class="st0" d="M78.3,73.7c-15.6,0-26.8-10.3-26.8-26.9s11-26.9,26.8-26.9,26.4,10.1,26.4,26,0,3.1-.3,4.7h-36.7c.6,6.8,4.8,10,10.1,10s7.1-2.2,8.4-5.1h17.3c-2.6,10.2-12,18.1-25.1,18.1ZM67.8,41.8h20.3c0-5.7-4.6-9-10-9s-9.4,3.2-10.3,9Z"/>
    <path class="st0" d="M136.8,20c13.3,0,22.7,7.2,25.4,19.7h-17.3c-1.3-3.6-4-6-8.4-6s-9.8,4.5-9.8,13.2,4,13.2,9.8,13.2,7-2.2,8.4-6h17.3c-2.8,12.1-12.1,19.7-25.4,19.7s-26.6-10.3-26.6-26.9,11-26.9,26.6-26.9Z"/>
    <path class="st0" d="M167.8,3.7h16.2v24.1c3.2-4.5,9-7.6,16.3-7.6,12.1,0,20.1,8.2,20.1,22.3v30.5h-16.1v-28.4c0-7.1-4-11-10.2-11s-10.2,3.9-10.2,11v28.4h-16.2V3.7Z"/>
    <path class="st0" d="M232.4,31h-6.5v-13.3h0c3.6,0,6.5-2.9,6.5-6.5v-7.2h16.2v13.7h10.6v13.3h-10.6v24c0,3.1,1.3,4.4,4.9,4.4h5.8v13.6h-8.3c-11,0-18.7-4.6-18.7-18.2v-23.8Z"/>
    <path class="st0" d="M292.2,73.7c-15.6,0-27.3-10.3-27.3-26.9s12.1-26.9,27.5-26.9,27.5,10.3,27.5,26.9-12.1,26.9-27.7,26.9ZM292.2,59.9c5.8,0,11.2-4.2,11.2-13s-5.3-13-11-13-11,4.1-11,13,4.9,13,10.8,13Z"/>
    <path class="st0" d="M412.1,22.2c-7.1,0-10.8,3.1-14,7.5l.5-2.4,1.4-6.5h-15.3l-7.4,37.2-9-37.2h-17.2l-8.9,37.3-7.5-37.3h-15.2l11.4,52.2h19.8l8.6-33.9,8.4,33.9h18.2,0s2.7,0,2.7,0h0c0-.1,6.2-25.3,6.2-25.3,2.2-5.5,5-8.4,10.3-8.4s10.2,3.9,10.2,11v22.7h15.2v-28.5c0-14-6.2-22.3-18.4-22.3Z"/>
  </g>
  <ellipse class="st1" cx="6.7" cy="6.8" rx="6.7" ry="6.8"/>
</svg>